<?xml version="1.0" encoding="UTF-8" standalone="no"?>
<!-- Created with Inkscape (http://www.inkscape.org/) -->

<svg
   xmlns:dc="http://purl.org/dc/elements/1.1/"
   xmlns:cc="http://creativecommons.org/ns#"
   xmlns:rdf="http://www.w3.org/1999/02/22-rdf-syntax-ns#"
   xmlns:svg="http://www.w3.org/2000/svg"
   xmlns="http://www.w3.org/2000/svg"
   xmlns:inkscape="http://www.inkscape.org/namespaces/inkscape"
   version="1.1"
   width="80"
   height="80"
   id="svg2"
   xml:space="preserve"><metadata
     id="metadata8"><rdf:RDF><cc:Work
         rdf:about=""><dc:format>image/svg+xml</dc:format><dc:type
           rdf:resource="http://purl.org/dc/dcmitype/StillImage" /></cc:Work></rdf:RDF></metadata><defs
     id="defs6" /><g
     transform="matrix(1.25,0,0,-1.25,0,80)"
     id="g10"><g
       transform="scale(0.1,0.1)"
       id="g12"><path
         d="M 640,320 C 640,143.27 496.73,0 320,0 143.27,0 0,143.27 0,320 0,496.73 143.27,640 320,640 496.73,640 640,496.73 640,320"
         inkscape:connector-curvature="0"
         id="path14"
         style="fill:#495672;fill-opacity:1;fill-rule:nonzero;stroke:none" /><path
         d="m 220,150 -80,0 c -22.094,0 -40,17.91 -40,40 l 0,130 c 0,22.094 17.906,40 40,40 l 40,0 c 22.094,0 40,-17.906 40,-40 l 0,-170"
         inkscape:connector-curvature="0"
         id="path16"
         style="fill:#404a5f;fill-opacity:1;fill-rule:nonzero;stroke:none" /><path
         d="m 380,150 -120,0 0,320 c 0,22.094 17.906,40 40,40 l 40,0 c 22.094,0 40,-17.906 40,-40 l 0,-320"
         inkscape:connector-curvature="0"
         id="path18"
         style="fill:#404a5f;fill-opacity:1;fill-rule:nonzero;stroke:none" /><path
         d="m 500,150 -80,0 0,120 c 0,22.094 17.906,40 40,40 l 40,0 c 22.094,0 40,-17.906 40,-40 l 0,-80 c 0,-22.09 -17.906,-40 -40,-40"
         inkscape:connector-curvature="0"
         id="path20"
         style="fill:#404a5f;fill-opacity:1;fill-rule:nonzero;stroke:none" /><path
         d="m 180,380 -40,0 c -22.094,0 -40,-17.906 -40,-40 l 0,-130 c 0,-22.09 17.906,-40 40,-40 l 80,0 0,170 c 0,22.094 -17.906,40 -40,40"
         inkscape:connector-curvature="0"
         id="path22"
         style="fill:#e1e3cc;fill-opacity:1;fill-rule:nonzero;stroke:none" /><path
         d="m 340,530 -40,0 c -22.094,0 -40,-17.906 -40,-40 l 0,-320 120,0 0,320 c 0,22.094 -17.906,40 -40,40"
         inkscape:connector-curvature="0"
         id="path24"
         style="fill:#77caa9;fill-opacity:1;fill-rule:nonzero;stroke:none" /><path
         d="m 500,330 -40,0 c -22.094,0 -40,-17.906 -40,-40 l 0,-120 80,0 c 22.094,0 40,17.91 40,40 l 0,80 c 0,22.094 -17.906,40 -40,40"
         inkscape:connector-curvature="0"
         id="path26"
         style="fill:#ffffff;fill-opacity:1;fill-rule:nonzero;stroke:none" /></g></g></svg>