<?xml version="1.0" encoding="UTF-8" standalone="no"?>
<!-- Created with Inkscape (http://www.inkscape.org/) -->

<svg
   xmlns:dc="http://purl.org/dc/elements/1.1/"
   xmlns:cc="http://creativecommons.org/ns#"
   xmlns:rdf="http://www.w3.org/1999/02/22-rdf-syntax-ns#"
   xmlns:svg="http://www.w3.org/2000/svg"
   xmlns="http://www.w3.org/2000/svg"
   xmlns:inkscape="http://www.inkscape.org/namespaces/inkscape"
   version="1.1"
   width="80"
   height="80"
   id="svg2"
   xml:space="preserve"><metadata
     id="metadata8"><rdf:RDF><cc:Work
         rdf:about=""><dc:format>image/svg+xml</dc:format><dc:type
           rdf:resource="http://purl.org/dc/dcmitype/StillImage" /></cc:Work></rdf:RDF></metadata><defs
     id="defs6" /><g
     transform="matrix(1.25,0,0,-1.25,0,80)"
     id="g10"><g
       transform="scale(0.1,0.1)"
       id="g12"><path
         d="M 640,320 C 640,143.27 496.73,0 320,0 143.27,0 0,143.27 0,320 0,496.73 143.27,640 320,640 496.73,640 640,496.73 640,320"
         inkscape:connector-curvature="0"
         id="path14"
         style="fill:#e1e3cc;fill-opacity:1;fill-rule:nonzero;stroke:none" /><path
         d="m 550,330 -200,0 0,200 c 110.457,0 200,-89.543 200,-200"
         inkscape:connector-curvature="0"
         id="path16"
         style="fill:#b7b7a7;fill-opacity:1;fill-rule:nonzero;stroke:none" /><path
         d="m 550,350 c 0,110.457 -89.543,200 -200,200 l 0,-200 200,0"
         inkscape:connector-curvature="0"
         id="path18"
         style="fill:#495672;fill-opacity:1;fill-rule:nonzero;stroke:none" /><path
         d="M 310,70 C 188.496,70 90,168.496 90,290 c 0,3.352 0.0742,6.684 0.2227,10 C 95.4531,183.141 191.848,90 310,90 c 52.086,0 99.949,18.105 137.633,48.363 l 10.226,-11.265 C 418.797,91.6211 366.926,70 310,70"
         inkscape:connector-curvature="0"
         id="path20"
         style="fill:#b7b7a7;fill-opacity:1;fill-rule:nonzero;stroke:none" /><path
         d="M 310,530 C 188.496,530 90,431.504 90,310 90,188.496 188.496,90 310,90 c 56.926,0 108.797,21.621 147.859,57.098 L 310,310 l 0,220"
         inkscape:connector-curvature="0"
         id="path22"
         style="fill:#77caa9;fill-opacity:1;fill-rule:nonzero;stroke:none" /><path
         d="m 457.859,127.098 0,0 -10.226,11.265 c 3.5,2.809 6.91,5.719 10.226,8.735 L 310,310 l 220,0 c 0,-64.578 -27.824,-142.656 -72.141,-182.902"
         inkscape:connector-curvature="0"
         id="path24"
         style="fill:#b7b7a7;fill-opacity:1;fill-rule:nonzero;stroke:none" /><path
         d="M 447.633,138.363 310,290 l 0,20 147.859,-162.902 c -3.316,-3.016 -6.726,-5.926 -10.226,-8.735 l 0,0"
         inkscape:connector-curvature="0"
         id="path26"
         style="fill:#62a48d;fill-opacity:1;fill-rule:nonzero;stroke:none" /><path
         d="M 530,310 310,310 457.859,147.098 C 502.176,187.344 530,245.422 530,310"
         inkscape:connector-curvature="0"
         id="path28"
         style="fill:#c84755;fill-opacity:1;fill-rule:nonzero;stroke:none" /></g></g></svg>