<?xml version="1.0" encoding="UTF-8" standalone="no"?>
<!-- Created with Inkscape (http://www.inkscape.org/) -->

<svg
   xmlns:dc="http://purl.org/dc/elements/1.1/"
   xmlns:cc="http://creativecommons.org/ns#"
   xmlns:rdf="http://www.w3.org/1999/02/22-rdf-syntax-ns#"
   xmlns:svg="http://www.w3.org/2000/svg"
   xmlns="http://www.w3.org/2000/svg"
   xmlns:inkscape="http://www.inkscape.org/namespaces/inkscape"
   version="1.1"
   width="80"
   height="80"
   id="svg2"
   xml:space="preserve"><metadata
     id="metadata8"><rdf:RDF><cc:Work
         rdf:about=""><dc:format>image/svg+xml</dc:format><dc:type
           rdf:resource="http://purl.org/dc/dcmitype/StillImage" /></cc:Work></rdf:RDF></metadata><defs
     id="defs6" /><g
     transform="matrix(1.25,0,0,-1.25,0,80)"
     id="g10"><g
       transform="scale(0.1,0.1)"
       id="g12"><path
         d="m 382.621,249.258 c 27.524,22.144 49.434,57.558 61.481,95.726 12.386,15.793 19.605,32.254 19.605,46.204 0,9.546 -3.473,16.453 -9.547,21.578 -2.031,81.054 -59.418,146.132 -130.387,147.14 -0.554,0.008 -1.089,0.094 -1.648,0.094 -0.219,0 -0.43,-0.035 -0.645,-0.039 -70.519,-0.391 -127.828,-64.098 -131.253,-144.086 -8.84,-5.281 -13.934,-13.047 -13.934,-24.687 0,-16.411 9.922,-36.301 26.629,-54.477 11.871,-33.273 31.18,-63.805 55,-84.383 -3.539,-22.922 -16.992,-50.387 -56.969,-67.758 -21.586,-9.379 -61.051,-17.808 -78.082,-26.492 43.625,-47.691 126.246,-77.6913 195.891,-78.0468 l 0.988,-0.0234 c 0.086,0 0.168,-0.0078 0.25,-0.0078 70.141,0 153.246,30.102 197.129,78.078 -17.031,8.684 -56.496,17.113 -78.082,26.492 -38.211,16.606 -52.168,42.422 -56.426,64.688"
         inkscape:connector-curvature="0"
         id="path14"
         style="fill:#ffffff;fill-opacity:1;fill-rule:nonzero;stroke:none" /><path
         d="m 320,80 c -0.082,0 -0.164,0.0078 -0.25,0.0078 l -0.988,0.0234 c -69.645,0.3555 -152.266,30.3558 -195.891,78.0468 17.031,8.684 56.496,17.113 78.082,26.492 39.977,17.371 53.43,44.836 56.969,67.758 -23.82,20.578 -43.129,51.11 -55,84.383 -16.707,18.176 -26.629,38.066 -26.629,54.477 0,11.64 5.094,19.406 13.934,24.687 3.425,79.988 60.734,143.695 131.253,144.086 0.215,0.004 0.426,0.039 0.645,0.039 0.559,0 1.094,-0.086 1.648,-0.094 70.969,-1.008 128.356,-66.086 130.387,-147.14 6.074,-5.125 9.547,-12.032 9.547,-21.578 0,-13.95 -7.219,-30.411 -19.605,-46.204 -12.047,-38.168 -33.957,-73.582 -61.481,-95.726 4.258,-22.266 18.215,-48.082 56.426,-64.688 21.586,-9.379 61.051,-17.808 78.082,-26.492 C 473.246,110.102 390.141,80 320,80 z m 0,560 C 143.27,640 0,496.73 0,320 0,143.27 143.27,0 320,0 496.73,0 640,143.27 640,320 640,496.73 496.73,640 320,640"
         inkscape:connector-curvature="0"
         id="path16"
         style="fill:#495672;fill-opacity:1;fill-rule:nonzero;stroke:none" /></g></g></svg>