<?xml version="1.0" encoding="UTF-8" standalone="no"?>
<!-- Created with Inkscape (http://www.inkscape.org/) -->

<svg
   xmlns:dc="http://purl.org/dc/elements/1.1/"
   xmlns:cc="http://creativecommons.org/ns#"
   xmlns:rdf="http://www.w3.org/1999/02/22-rdf-syntax-ns#"
   xmlns:svg="http://www.w3.org/2000/svg"
   xmlns="http://www.w3.org/2000/svg"
   version="1.1"
   width="123"
   height="104"
   id="svg3912">
  <defs
     id="defs3914" />
  <metadata
     id="metadata3917">
    <rdf:RDF>
      <cc:Work
         rdf:about="">
        <dc:format>image/svg+xml</dc:format>
        <dc:type
           rdf:resource="http://purl.org/dc/dcmitype/StillImage" />
        <dc:title></dc:title>
      </cc:Work>
    </rdf:RDF>
  </metadata>
  <g
     transform="translate(0,-948.36217)"
     id="layer1">
    <path
       d="m 27.131418,956.93261 c 0,0 -5.01922,4.34052 -3.6875,5 11.35467,5.62291 14.8125,7.3125 14.8125,7.3125 l 2.21875,12.4375 -16.21875,13.21879 -12.34375,-8.84379 -1.53125,-22.90625 c 0,0 -0.544511,-2.28953 -4.0312504,-2.03125 -3.48675,0.25827 -3.83552,1.17373 -4.125,5.5625 -0.28961,4.39072 -1.59375004,28.28129 -1.59375004,28.28129 2.97680004,1.9739 7.27515904,5.4336 20.12500044,13.3124 1.18908,0.6105 4.757899,3.9306 10.15625,0.125 5.452891,-3.844 22.59375,-20.03119 22.59375,-20.03119 0,0 3.0952,-2.06231 0.125,-10.84375 -2.97019,-8.78144 -4.875,-13.59375 -4.875,-13.59375 0,0 -1.16111,-1.31097 -8.5,-3.4375 -7.96871,-2.30904 -13.125,-3.5625 -13.125,-3.5625 z m 20.03125,37.625 -11.625,10.59369 35.40625,40.8125 c 0,0 6.248646,8.6136 11.428571,4.5849 5.191756,-4.038 9.102679,-9.4911 9.102679,-9.4911 3.619516,-5.2392 -1.57885,-7.1351 -15.625,-19.875 -14.97988,-13.5869 -28.6875,-26.62499 -28.6875,-26.62499 z"
       id="path3007"
       style="fill:#ffffff;fill-opacity:1;stroke:#ffffff;stroke-width:1px;stroke-linecap:butt;stroke-linejoin:miter;stroke-opacity:1" />
    <path
       d="m 87.603421,948.86358 c -2.65662,-0.007 -3.95296,0.4522 -6.49628,2.87293 -2.58758,2.46285 -5.89361,6.11474 -8.61228,9.00176 -3.20163,3.3999 -4.32501,5.51045 -4.32501,5.51045 0,0 -1.98021,3.50528 2.50786,10.39446 l 22.744213,-25.47579 c 0,0 -3.161883,-2.29689 -5.818503,-2.30381 z m 10.103893,6.37707 -22.910393,26.52318 1.06664,1.97682 -14.625,14.15625 13.25,13.1875 c 7.58522,-9.4441 13.3551,-16.76667 13.90625,-17.46875 l 9.250003,7.28125 c 0,0 1.0475,0.8632 2.999996,0.7812 1.9525,-0.082 9.28395,-1.6126 9.28395,-1.6126 0,0 2.12113,-0.3123 4.1372,-2.1311 1.35601,-1.2234 7.43729,-8.35207 7.43729,-8.35207 0,0 0.71922,-2.47311 0.29781,-4.87293 -0.35806,-2.03906 -0.96461,-4.75207 -0.96461,-4.75207 0,0 -0.77347,-4.38095 -1.91039,-5.62293 -1.13691,-1.24196 -21.218746,-19.09375 -21.218746,-19.09375 z m -58.218753,64.03125 -14.71875,14.2187 c 0,0 -4.67527,3.5739 -1.9375,7.8438 0,0 3.476334,4.4801 8.254464,9 4.77814,4.5198 12.276786,-4.0938 12.276786,-4.0938 l 10.90625,-11.2187 c -4.54262,-5.0792 -10.0994,-10.8025 -14.78125,-15.75 z"
       id="path3007-1"
       style="fill:#ffffff;fill-opacity:1;stroke:#ffffff;stroke-width:1px;stroke-linecap:butt;stroke-linejoin:miter;stroke-opacity:1" />
  </g>
</svg>
