<?xml version="1.0" encoding="utf-8"?>
<!-- Generator: Adobe Illustrator 16.0.0, SVG Export Plug-In . SVG Version: 6.00 Build 0)  -->
<!DOCTYPE svg PUBLIC "-//W3C//DTD SVG 1.1//EN" "http://www.w3.org/Graphics/SVG/1.1/DTD/svg11.dtd">
<svg version="1.1"
	 id="svg3022" xmlns:dc="http://purl.org/dc/elements/1.1/" xmlns:cc="http://creativecommons.org/ns#" xmlns:rdf="http://www.w3.org/1999/02/22-rdf-syntax-ns#" xmlns:svg="http://www.w3.org/2000/svg"
	 xmlns="http://www.w3.org/2000/svg" xmlns:xlink="http://www.w3.org/1999/xlink" x="0px" y="0px" width="240px" height="240px"
	 viewBox="0 0 240 240" enable-background="new 0 0 240 240" xml:space="preserve">
<g id="layer3">
	<g id="g3901">
		<path id="path3037-7" fill="none" stroke="#E4C84D" stroke-width="14.3275" d="M185.427,119.66c0,35.258-28.582,63.84-63.84,63.84
			s-63.84-28.582-63.84-63.84s28.583-63.84,63.84-63.84S185.427,84.402,185.427,119.66z"/>
		<path id="path3881" fill="#E4C84D" stroke="#E4C84D" d="M95.339,53.373l20.339-39.39h5.085l21.864,38.61L95.339,53.373z"/>
		<path id="path3883" fill="#E4C84D" stroke="#E4C84D" d="M145.952,182.869l-22.878,45.803l-5.081-0.211L95.77,183.552
			L145.952,182.869z"/>
		<path id="path3885" fill="#E4C84D" stroke="#E4C84D" d="M185.377,93.005l41.892,24.748l0.114,2.663l-42.088,22.775L185.377,93.005
			z"/>
		<path id="path3887" fill="#E4C84D" stroke="#E4C84D" d="M55.385,144.916l-42.389-25.4l0.318-2.743L54.98,94.822L55.385,144.916z"
			/>
		<path id="path3889" fill="#E4C84D" stroke="#E4C84D" d="M60.254,155.721L51.449,187.5l30.381-8.645L60.254,155.721z"/>
		<path id="path3891" fill="#E4C84D" stroke="#E4C84D" d="M157.769,178.006l32.101,9.811l-9.585-30.098L157.769,178.006z"/>
		<path id="path3893" fill="#E4C84D" stroke="#E4C84D" d="M174.279,81.84l11.177-30.981l-30.524,6.582L174.279,81.84z"/>
		<path id="path3895" fill="#E4C84D" stroke="#E4C84D" d="M83.186,61.597L53.983,49.463l7.667,33.234L83.186,61.597z"/>
	</g>
	<path id="rect3899" fill="none" stroke="#E4C84D" stroke-width="13.9551" d="M42.213,6.978h155.574
		c19.46,0,35.235,15.775,35.235,35.235v155.574c0,19.46-15.775,35.235-35.235,35.235H42.213c-19.46,0-35.235-15.775-35.235-35.235
		V42.213C6.978,22.753,22.753,6.978,42.213,6.978z"/>
	<path id="path3037" fill="#2C3E50" d="M180.4,119.6c0,33.137-26.863,60-60,60s-60-26.862-60-60s26.863-60,60-60
		S180.4,86.463,180.4,119.6z"/>
</g>
<g id="layer2">
	<path id="path3037-1" fill="#16CCF4" d="M102.95,96.774l-6,4.688l-15,0.281l-13.469,13.469l-7.281-5.219
		c-0.517,3.167-0.781,6.406-0.781,9.719c0,33.138,26.863,60,60,60c33.138,0,60-26.862,60-60c0-7.996-1.567-15.618-4.406-22.594
		l-0.75,0.938l-9.156,13.219l-7.375-11.969l-13.219,26.719l-6.969,6.594l-7.625,17.281h-6.75l-14.25-40.938L102.95,96.774
		L102.95,96.774z"/>
</g>
<g id="layer4">
</g>
</svg>
