<?xml version="1.0" encoding="UTF-8" standalone="no"?>
<!-- Created with Inkscape (http://www.inkscape.org/) -->

<svg
   xmlns:dc="http://purl.org/dc/elements/1.1/"
   xmlns:cc="http://creativecommons.org/ns#"
   xmlns:rdf="http://www.w3.org/1999/02/22-rdf-syntax-ns#"
   xmlns:svg="http://www.w3.org/2000/svg"
   xmlns="http://www.w3.org/2000/svg"
   version="1.1"
   width="123"
   height="104"
   id="svg3799">
  <defs
     id="defs3801" />
  <metadata
     id="metadata3804">
    <rdf:RDF>
      <cc:Work
         rdf:about="">
        <dc:format>image/svg+xml</dc:format>
        <dc:type
           rdf:resource="http://purl.org/dc/dcmitype/StillImage" />
        <dc:title></dc:title>
      </cc:Work>
    </rdf:RDF>
  </metadata>
  <g
     id="layer2" />
  <g
     transform="translate(0,-948.36218)"
     id="layer1">
    <path
       d="m 27.708761,953.01723 c -1.913492,0.12008 -4.460172,0.85725 -4.36436,3.87908 0.190344,6.00367 3.712964,12.03168 3.712964,12.03168 l 49.766734,51.34851 c 2.474465,2.4495 5.341456,0.066 5.341456,0.066 0,0 2.144378,-1.322 8.761291,-8.5142 6.804775,-7.3964 0.716536,-10.4209 0.716536,-10.4209 0,0 -42.456715,-42.49388 -51.688355,-45.75988 -7.637907,-2.70217 -10.194364,-2.56413 -10.194364,-2.56413 0,0 -0.903806,-0.1378 -2.051902,-0.0658 z m -0.260558,5.9501 5.406596,8.25123 47.096007,47.33784 -1.693633,1.8738 -47.454275,-48.25831 -3.354695,-9.20456 z m 74.259257,35.14172 c -1.15441,0.0368 -2.222779,0.92854 -3.745526,2.46555 -3.045495,3.07388 -0.683967,4.9639 -0.683967,4.9639 l 5.243743,5.4899 -21.886938,22.1896 c -4.179358,-3.3846 -8.311628,-8.104 -10.845761,-5.4899 -1.076493,1.1105 -3.10312,2.8019 -3.387265,4.8981 -0.182277,1.3448 1.429761,3.0552 3.810673,5.4241 9.719081,9.6702 13.581628,5.983 13.581628,5.983 l 11.497159,-11.1113 c 0,0 6.268184,5.0656 9.608104,9.6977 1.20716,4.9366 5.81712,15.017 15.3404,4.8325 7.73311,-11.4808 -7.06766,-13.0836 -7.06766,-13.0836 l -10.45493,-9.7964 c 0,0 1.65576,-1.4975 8.07734,-8.8429 5.54262,-6.3401 -1.2293,-11.323 -4.85292,-14.99031 -1.85398,-1.87635 -3.07965,-2.66674 -4.23408,-2.62994 z"
       id="path3942"
       style="fill:#ffffff;fill-opacity:1;stroke:#ffffff;stroke-width:1.04708159px;stroke-linecap:butt;stroke-linejoin:miter;stroke-opacity:1" />
    <path
       d="m 94.476959,952.88574 c -0.248471,10e-4 -0.466666,0.0201 -0.651397,0.0328 -0.369463,0.0254 -0.586257,0.0658 -0.586257,0.0658 0,0 -2.556457,-0.13802 -10.194364,2.56413 -3.323365,1.17575 -10.974812,7.45957 -19.379062,14.99031 l 3.940952,3.41883 13.939897,-13.97121 9.119559,-3.38597 -8.175034,5.45699 -13.22336,13.37949 10.943471,9.59905 15.731239,-16.20661 c 0,0 3.522619,-6.028 3.712964,-12.03169 0.09581,-3.02181 -2.45087,-3.75898 -4.364361,-3.87906 -0.287024,-0.018 -0.565775,-0.0342 -0.814247,-0.0328 z m -51.688355,37.17988 c -6.585927,6.37338 -11.432018,11.24278 -11.432018,11.24278 0,0 -6.088239,3.0244 0.716536,10.4209 6.616913,7.1922 8.76129,8.5142 8.76129,8.5142 0,0 2.866992,2.3839 5.341456,-0.066 l 13.093081,-13.4782 -10.422353,-10.51949 -13.25593,13.41239 -1.856482,-1.7093 13.41878,-13.41255 -4.36436,-4.40504 z"
       id="path3885"
       style="fill:#ffffff;fill-opacity:1;stroke:#ffffff;stroke-width:1.04708159px;stroke-linecap:butt;stroke-linejoin:miter;stroke-opacity:1" />
    <path
       d="m 21.292538,994.0193 c 1.154421,0.0368 2.222785,0.92852 3.745532,2.4655 3.045495,3.07388 0.683967,4.9639 0.683967,4.9639 l -5.243746,5.49 21.88694,22.1895 c 4.179359,-3.3846 8.311629,-8.1039 10.845762,-5.4898 1.076493,1.1105 3.103119,2.8018 3.387265,4.898 0.182277,1.3448 -1.429761,3.0553 -3.810673,5.4243 -9.719081,9.6702 -13.581628,5.9829 -13.581628,5.9829 l -11.497159,-11.1112 c 0,0 -6.268191,5.0654 -9.608106,9.6975 -1.207169,4.9366 -5.817122,15.0171 -15.3404006,4.8325 -7.7331158,-11.4807 7.067658,-13.0836 7.067658,-13.0836 l 10.4549216,-9.7963 c 0,0 -1.655753,-1.4975 -8.077322,-8.843 -5.5426284,-6.34 1.229295,-11.323 4.852907,-14.99031 1.853975,-1.87629 3.07966,-2.6667 4.234082,-2.62989 z"
       id="path3942-4"
       style="fill:#ffffff;fill-opacity:1;stroke:#ffffff;stroke-width:1.04708159px;stroke-linecap:butt;stroke-linejoin:miter;stroke-opacity:1" />
  </g>
</svg>
